<svg fill="currentColor" version="1.1" viewBox="0 0 24 24" xmlns="http://www.w3.org/2000/svg">
 <path d="m18.67 1.427c-1.539-.02423-2.694 1.148-3.652 2.204-3.904 3.976-7.865 7.905-11.73 11.91-.6121 2.031-1.242 4.067-1.801 6.112-.03295.7887.9117 1.126 1.512.7399 1.773-.605 3.584-1.116 5.34-1.76 4.353-4.3 8.677-8.641 12.97-13 1.095-1.081 1.478-2.904.5603-4.215-.6999-1.079-1.848-2.012-3.196-1.995zm.1455 1.769c.94.1906 1.836 1.086 1.834 2.077-.04359.3528-.399 1.139-.6557 1.076-.5206-1.141-1.504-2.066-2.571-2.644.388-.3188.8819-.5467 1.393-.5087zm-2.572 1.914c1.172.4535 2.139 1.476 2.439 2.707l-10.26 10.28c-.5528-1.141-1.518-2.068-2.655-2.621l10.3-10.42.09367.02882zm-11.46 11.85c1.01.4218 1.866 1.25 2.242 2.288-1.149.3894-2.293.7702-3.442 1.158.3626-1.161.7237-2.322 1.083-3.484l.09313.03055z" stroke-width=".679"/>
</svg>
